<svg version="1" xmlns="http://www.w3.org/2000/svg" width="229.333" height="229.333" viewBox="0 0 172.000000 172.000000"><path d="M46.9.7c-.1.5-.3 3.3-.5 6.3-.1 3-.3 6-.3 6.6-.1.8-3.7 1.3-10.3 1.6-14.2.6-20 3.8-23.5 13.2-.8 2.2-1.2 20.3-1.2 65.6v62.5l2.3 4.5c1.3 2.6 4.1 5.8 6.5 7.5l4.3 3H147.5l3.8-2.4c2.1-1.3 5-4.2 6.5-6.4l2.7-4.1.2-64c.3-63 .3-64.2-1.8-68-4.7-8.8-8.7-10.9-22.3-11.6l-10.9-.5-.1-6.4c-.1-5-.5-6.6-1.9-7.5-1.5-.9-2.3-.5-5 2.9-1.8 2.2-4.3 5.3-5.8 6.9l-2.5 2.8-5.4-6.6C102.1 3 99.1 0 98.4 0c-.7 0-3.7 2.9-6.6 6.4-2.9 3.6-5.6 6.4-5.9 6.3-.3-.1-2.9-3-5.8-6.5C77.3 2.8 74.3 0 73.6 0c-.7 0-3.7 3-6.6 6.6l-5.4 6.6-2.9-3.4C57.1 8 54.6 5 53.3 3.2 51 .3 47.2-1.2 46.9.7zm32.9 13.9c6.2 7.5 6.7 7.5 13.4-1.1 2.3-3 4.6-5.5 4.9-5.5.4 0 2.8 2.6 5.5 5.7 2.7 3.2 5.3 6.1 5.8 6.5 1.5 1 4-.7 6.7-4.6 1.3-2 2.7-3.6 3.2-3.6.4 0 .7 18.7.7 41.5 0 39.6.1 41.5 1.9 42.4 1.4.8 2.2.7 3.2-.6.8-.9 1.3-1.8 1.2-2-.8-1-.1-6.3.7-6.3 2.3 0 6 5 6 8.1 0 4.1-2.9 8.8-6 9.7-1.4.3-20.1.6-41.6.6-42 .1-43 0-45.3-5.1-1.5-3.2-1.4-5.8.4-9.2 1.3-2.6 4.2-4.7 5.1-3.8.2.2.6 1.9.8 3.8.2 1.9.4 3.8.5 4.2 0 .5 1.1.7 2.4.5l2.2-.3.3-42.3.2-42.4 3.6 4.4c2 2.4 4.3 4.7 5 5.1 1.5.9 5.5-2.9 9.7-9C71.5 9.5 73 8 73.5 8.1c.6 0 3.4 2.9 6.3 6.5zM46.1 27.7c.1 8.1.1 49.1 0 51.4-.1.8-1.9 2.3-4 3.3-11.2 4.9-11.7 21.2-.7 26.5 4.1 2 5.9 2.1 44.6 2.1 38.2 0 40.6-.1 44.5-2 10-4.9 11-18.9 1.6-25.4-2-1.4-4.2-2.6-4.9-2.6-.7 0-1.2-.7-1.3-1.5v-26V25l.1-4h9.1c7.5 0 9.8.4 13 2.2 7.3 4.1 7 1.6 7 70.2 0 35.9-.4 62.3-1 63.7-1.3 3.3-4.7 6.8-7.9 8-3.6 1.4-116.7 1.4-120.2.1-3.4-1.4-6.9-4.8-8.1-8-1.4-3.6-1.4-123.8 0-127.4 1.1-3 4.6-6.6 7.6-7.8 1.1-.5 6.2-.9 11.3-.9L46 21l.1 6.7z"/><path d="M60.2 30.7c-1.3.9-1.5 1.6-.6 3 1 1.7 3.1 1.8 25.5 1.8 13.4.1 25.2-.3 26.2-.7 2-1 2.3-3.3.5-4.4-2.1-1.4-49.8-1.1-51.6.3zM59.3 46.6c-1.2 3.3 1.4 3.9 16.8 4 15.6 0 18.6-.6 17.3-3.9-.5-1.5-2.4-1.7-17-1.7-14 0-16.6.2-17.1 1.6zM59.6 61.7c-1.4 3.6 1.7 4.2 22 4.1 15.8 0 19.8-.3 21-1.5 1.1-1.2 1.2-1.8.3-2.9C102 60.3 97.5 60 81 60c-18.8 0-20.9.2-21.4 1.7zM60 76.5c-1 1.2-1 1.8 0 3 1 1.3 5.2 1.5 26 1.5s25-.2 26-1.5c1-1.2 1-1.8 0-3-1-1.3-5.2-1.5-26-1.5s-25 .2-26 1.5zM40 127.8c-7.6 3.7-9 13.6-2.9 19.3 3.4 3.1 5.9 3.8 10.8 2.8 9.9-2.1 12.4-15.7 3.8-21.3-3.6-2.4-8-2.7-11.7-.8zm8.8 5.9c3.4 2.9 3.3 7.5-.2 9.8-1.8 1.2-2.9 1.3-5.2.5-1.6-.6-3.2-1.7-3.6-2.3-1.4-2.2-.8-5.7 1.2-7.7 2.5-2.5 5.1-2.5 7.8-.3zM66.8 128c-5.9 3.1-8.2 11.2-4.7 16.8 5.9 9.3 20.5 6.1 22.2-4.9.8-5.1-4.1-12.7-8.3-13-.8-.1-2.5-.3-3.8-.4-1.2-.1-3.7.5-5.4 1.5zm9.7 6.5c2.8 2.7 3 3.7 1.5 6.5-1.7 3.2-4.8 4.3-8.1 3-6.4-2.7-4.3-11.2 2.9-11.9.7 0 2.4 1 3.7 2.4zM95 127.3c-3.3 1.5-4.4 2.7-6.2 6.2-4.8 9.7 5.2 19.9 15.4 15.8 8.2-3.3 9.9-15.2 2.8-20.3-3.4-2.4-8.6-3.2-12-1.7zm8.9 7.1c3.8 3.5 1.7 9-3.8 10.1-3.2.6-7.5-3.8-6.5-6.8 1.7-5.6 6.2-7 10.3-3.3zM122.4 127.4c-7.4 3.2-9.9 12.5-4.9 18.4 6.3 7.5 17.9 5.4 20.6-3.8 2.9-9.7-6.6-18.5-15.7-14.6zm8.6 6.6c2 2 2.6 5.5 1.2 7.7-.4.6-2 1.7-3.6 2.3-6.1 2.3-10.7-5-6-9.7 2.8-2.8 5.8-2.9 8.4-.3z"/></svg>